<svg width="29" height="29" viewBox="0 0 29 29" fill="none" xmlns="http://www.w3.org/2000/svg">
<path d="M18.983 15.3579C20.1676 14.4259 21.0323 13.1478 21.4567 11.7014C21.8811 10.2551 21.8442 8.7124 21.351 7.28802C20.8579 5.86364 19.933 4.62838 18.7051 3.75411C17.4773 2.87984 16.0074 2.41002 14.5001 2.41002C12.9927 2.41002 11.5229 2.87984 10.295 3.75411C9.06708 4.62838 8.14222 5.86364 7.64906 7.28802C7.1559 8.7124 7.11897 10.2551 7.54339 11.7014C7.96782 13.1478 8.8325 14.4259 10.0171 15.3579C7.98723 16.1712 6.21607 17.52 4.89247 19.2607C3.56887 21.0014 2.74245 23.0687 2.50131 25.2421C2.48385 25.4008 2.49782 25.5613 2.54242 25.7146C2.58702 25.8679 2.66137 26.0109 2.76123 26.1354C2.96291 26.387 3.25625 26.5481 3.57672 26.5833C3.89719 26.6186 4.21854 26.5251 4.47008 26.3234C4.72161 26.1217 4.88272 25.8284 4.91797 25.5079C5.18331 23.1459 6.3096 20.9643 8.08166 19.3802C9.85372 17.7961 12.1473 16.9203 14.5242 16.9203C16.9011 16.9203 19.1947 17.7961 20.9668 19.3802C22.7389 20.9643 23.8651 23.1459 24.1305 25.5079C24.1633 25.8048 24.305 26.079 24.5281 26.2776C24.7513 26.4762 25.0401 26.5851 25.3388 26.5833H25.4717C25.7885 26.5469 26.078 26.3867 26.2772 26.1378C26.4763 25.8888 26.569 25.5712 26.5351 25.2542C26.2928 23.0746 25.4619 21.002 24.1315 19.2587C22.8011 17.5153 21.0213 16.1669 18.983 15.3579ZM14.5001 14.5C13.5441 14.5 12.6096 14.2165 11.8148 13.6854C11.02 13.1543 10.4005 12.3995 10.0346 11.5163C9.66882 10.6331 9.5731 9.6613 9.75959 8.72372C9.94609 7.78615 10.4064 6.92493 11.0824 6.24898C11.7583 5.57302 12.6195 5.11269 13.5571 4.9262C14.4947 4.7397 15.4665 4.83542 16.3497 5.20124C17.2329 5.56707 17.9877 6.18657 18.5188 6.9814C19.0499 7.77624 19.3334 8.71072 19.3334 9.66666C19.3334 10.9485 18.8242 12.1779 17.9177 13.0843C17.0113 13.9908 15.7819 14.5 14.5001 14.5Z" fill="white" fill-opacity="0.75"/>
</svg>
