<svg width="29" height="29" viewBox="0 0 29 29" fill="none" xmlns="http://www.w3.org/2000/svg">
<path d="M10.875 12.0833C10.5545 12.0833 10.2471 12.2106 10.0205 12.4373C9.79393 12.6639 9.66663 12.9712 9.66663 13.2917V15.7083C9.66663 16.0288 9.79393 16.3362 10.0205 16.5628C10.2471 16.7894 10.5545 16.9167 10.875 16.9167C11.1954 16.9167 11.5028 16.7894 11.7294 16.5628C11.956 16.3362 12.0833 16.0288 12.0833 15.7083V13.2917C12.0833 12.9712 11.956 12.6639 11.7294 12.4373C11.5028 12.2106 11.1954 12.0833 10.875 12.0833ZM25.375 13.2917C25.6954 13.2917 26.0028 13.1644 26.2294 12.9378C26.456 12.7112 26.5833 12.4038 26.5833 12.0833V7.25001C26.5833 6.92954 26.456 6.62219 26.2294 6.39558C26.0028 6.16898 25.6954 6.04167 25.375 6.04167H3.62496C3.30449 6.04167 2.99715 6.16898 2.77054 6.39558C2.54393 6.62219 2.41663 6.92954 2.41663 7.25001V12.0833C2.41663 12.4038 2.54393 12.7112 2.77054 12.9378C2.99715 13.1644 3.30449 13.2917 3.62496 13.2917C3.94543 13.2917 4.25277 13.419 4.47938 13.6456C4.70599 13.8722 4.83329 14.1795 4.83329 14.5C4.83329 14.8205 4.70599 15.1278 4.47938 15.3544C4.25277 15.581 3.94543 15.7083 3.62496 15.7083C3.30449 15.7083 2.99715 15.8356 2.77054 16.0623C2.54393 16.2889 2.41663 16.5962 2.41663 16.9167V21.75C2.41663 22.0705 2.54393 22.3778 2.77054 22.6044C2.99715 22.831 3.30449 22.9583 3.62496 22.9583H25.375C25.6954 22.9583 26.0028 22.831 26.2294 22.6044C26.456 22.3778 26.5833 22.0705 26.5833 21.75V16.9167C26.5833 16.5962 26.456 16.2889 26.2294 16.0623C26.0028 15.8356 25.6954 15.7083 25.375 15.7083C25.0545 15.7083 24.7471 15.581 24.5205 15.3544C24.2939 15.1278 24.1666 14.8205 24.1666 14.5C24.1666 14.1795 24.2939 13.8722 24.5205 13.6456C24.7471 13.419 25.0545 13.2917 25.375 13.2917ZM24.1666 11.0925C23.4668 11.3465 22.8622 11.8098 22.4349 12.4195C22.0076 13.0291 21.7784 13.7555 21.7784 14.5C21.7784 15.2445 22.0076 15.9709 22.4349 16.5806C22.8622 17.1902 23.4668 17.6535 24.1666 17.9075V20.5417H12.0833C12.0833 20.2212 11.956 19.9139 11.7294 19.6873C11.5028 19.4606 11.1954 19.3333 10.875 19.3333C10.5545 19.3333 10.2471 19.4606 10.0205 19.6873C9.79393 19.9139 9.66663 20.2212 9.66663 20.5417H4.83329V17.9075C5.5331 17.6535 6.13774 17.1902 6.56503 16.5806C6.99232 15.9709 7.22154 15.2445 7.22154 14.5C7.22154 13.7555 6.99232 13.0291 6.56503 12.4195C6.13774 11.8098 5.5331 11.3465 4.83329 11.0925V8.45834H9.66663C9.66663 8.77881 9.79393 9.08615 10.0205 9.31276C10.2471 9.53937 10.5545 9.66667 10.875 9.66667C11.1954 9.66667 11.5028 9.53937 11.7294 9.31276C11.956 9.08615 12.0833 8.77881 12.0833 8.45834H24.1666V11.0925Z" fill="white" fill-opacity="0.75"/>
</svg>
